<svg width="464" height="47" viewBox="0 0 464 47" fill="none" xmlns="http://www.w3.org/2000/svg">
<g filter="url(#filter0_d_733_21015)">
<path d="M459.75 0.899689L457.07 10.6173L431.669 28.1981H452.229L449.463 38.3371H413.998L416.764 28.1981L442.153 10.5691H422.21L424.877 0.899689H459.75Z" fill="white"/>
<path d="M420.666 0.899689L410.368 38.3371H398.315L408.614 0.899689H420.666Z" fill="white"/>
<path d="M389.671 10.5691H376.397L375.014 15.5664H388.288L389.671 10.5691ZM386.263 23.0443H372.988L371.605 28.0897H384.88L386.263 23.0443ZM402.687 5.31897C402.687 6.11371 402.526 7.10113 402.205 8.28121C401.205 11.99 400.575 14.1094 400.291 14.6271C399.328 16.6381 397.747 18.0711 395.549 18.9381C397.155 19.7689 397.945 21.0333 397.945 22.7312C397.945 23.4296 397.821 24.2243 397.575 25.1275L396.241 29.908C395.426 32.7859 394.253 34.8812 392.722 36.2058C391.092 37.6267 388.77 38.3371 385.794 38.3371H356.886L367.172 0.899689H396.179C400.526 0.899689 402.687 2.36877 402.687 5.31897Z" fill="white"/>
<path d="M36.8596 10.1477H23.6343L22.0907 15.8674H35.316L36.8596 10.1477ZM51.3075 0.899689L41.0211 38.3371H29.1294L33.2415 23.3573H20.0038L15.8917 38.3371H4L11.7302 10.1477C12.7305 6.51109 14.4469 3.99439 16.9043 2.6096C18.9665 1.46564 22.0537 0.899689 26.1781 0.899689H51.3075V0.899689Z" fill="white"/>
<path d="M328.287 10.1477H315.061L313.518 15.8674H326.743L328.287 10.1477ZM342.907 0.899689L332.609 38.3371H320.717L324.829 23.3573H311.604L307.492 38.3371H295.6L303.33 10.1477C304.33 6.51109 306.047 3.99439 308.504 2.6096C310.566 1.46564 313.654 0.899689 317.778 0.899689H342.907V0.899689Z" fill="white"/>
<path d="M301.947 0.899689L286.005 15.5664C292.401 15.5664 295.6 17.8423 295.6 22.382C295.6 23.4898 295.402 24.7542 295.007 26.1751L291.648 38.3492H279.757L283.967 23.0563H270.693L266.482 38.3492H254.59L264.876 0.911731H276.768L272.718 15.5784H274.101L290.043 0.911731H301.947V0.899689Z" fill="white"/>
<path d="M260.246 0.899689L249.959 38.3371H237.907L248.194 0.899689H260.246Z" fill="white"/>
<path d="M244.736 0.899689L242.069 10.5691H230.337L222.706 38.3371H210.654L218.285 10.5691H206.554L209.209 0.899689H244.736Z" fill="white"/>
<path d="M205.912 0.899689L195.613 38.3371H182.067L175.3 19.1428L170.015 38.3371H158.555L168.841 0.899689H182.388L189.167 20.082L194.44 0.899689H205.912Z" fill="white"/>
<path d="M149.911 10.1477H136.686L135.142 15.8674H148.368L149.911 10.1477ZM164.371 0.899689L154.085 38.3371H142.193L146.305 23.3573H133.08L128.968 38.3371H117.076L124.806 10.1477C125.807 6.51109 127.523 3.99439 129.98 2.6096C132.043 1.46564 135.13 0.899689 139.254 0.899689H164.371V0.899689Z" fill="white"/>
<path d="M116.631 28.1981L113.865 38.3371H83.1421L93.4408 0.899689H105.493L97.9727 28.1981H116.631Z" fill="white"/>
<path d="M90.1316 0.899689L87.4643 10.5691H75.7331L68.114 38.3371H56.0618L63.6809 10.5691H51.9497L54.617 0.899689H90.1316Z" fill="white"/>
<path d="M353.144 27.9332L350.267 38.3371H339.215L342.105 27.9332H353.144Z" fill="#01A0C6"/>
</g>
<defs>
<filter id="filter0_d_733_21015" x="0" y="0.899689" width="463.75" height="45.4495" filterUnits="userSpaceOnUse" color-interpolation-filters="sRGB">
<feFlood flood-opacity="0" result="BackgroundImageFix"/>
<feColorMatrix in="SourceAlpha" type="matrix" values="0 0 0 0 0 0 0 0 0 0 0 0 0 0 0 0 0 0 127 0" result="hardAlpha"/>
<feOffset dy="4"/>
<feGaussianBlur stdDeviation="2"/>
<feComposite in2="hardAlpha" operator="out"/>
<feColorMatrix type="matrix" values="0 0 0 0 0 0 0 0 0 0 0 0 0 0 0 0 0 0 0.25 0"/>
<feBlend mode="normal" in2="BackgroundImageFix" result="effect1_dropShadow_733_21015"/>
<feBlend mode="normal" in="SourceGraphic" in2="effect1_dropShadow_733_21015" result="shape"/>
</filter>
</defs>
</svg>
