<svg width="22" height="31" viewBox="0 0 22 31" fill="none" xmlns="http://www.w3.org/2000/svg">
<g clip-path="url(#clip0_733_21005)">
<path d="M0.0554526 15.489C0.0554526 13.654 -0.0156021 11.8165 0.0689285 9.98516C0.288218 5.29531 4.11537 1.12266 8.77435 0.210606C14.0704 -0.8262 19.2843 2.04318 21.2016 6.90866C21.6634 8.08112 21.9244 9.29719 21.9293 10.5569C21.9427 14.0052 22.1155 17.4608 21.8705 20.8983C21.5446 25.4682 19.0761 28.6719 14.7772 30.2864C8.17774 32.7634 1.32341 28.489 0.190211 22.0683C-0.0793063 20.5446 0.0383015 19.0136 0.00767445 17.485C-0.00580144 16.8201 0.00522429 16.1539 0.00522429 15.489C0.0223754 15.489 0.0383015 15.489 0.0554526 15.489ZM1.55863 15.1074C1.55863 16.9824 1.5476 18.4952 1.5623 20.008C1.57333 21.1005 1.74239 22.1688 2.10256 23.2093C3.60574 27.5491 8.39948 30.2513 12.8588 29.2617C17.3426 28.2673 20.3697 24.5634 20.3918 20.0153C20.4065 16.9897 20.404 13.964 20.3869 10.9384C20.3832 10.3364 20.3342 9.72596 20.2154 9.1361C19.1361 3.7716 13.9503 0.526734 8.59427 1.84454C4.91535 2.74933 2.04743 6.03173 1.65786 9.72717C1.45694 11.6409 1.63581 13.5571 1.55863 15.1074Z" fill="white" fill-opacity="0.7"/>
<path d="M10.2111 12.8716C10.2111 10.2179 10.227 7.75907 10.1988 5.30029C10.1927 4.78068 10.3042 4.53722 10.8592 4.6426C10.9376 4.65713 11.0233 4.65592 11.1029 4.6426C11.5991 4.5566 11.7596 4.73223 11.7522 5.24942C11.7228 7.5677 11.74 9.88598 11.74 12.203C11.74 12.3641 11.74 12.524 11.74 12.696C12.0058 12.7323 12.0891 12.5071 12.2178 12.3811C13.1035 11.5187 13.9819 10.6503 14.8492 9.77091C15.0428 9.57469 15.1494 9.54078 15.3773 9.75032C16.2703 10.5703 16.2789 10.5594 15.4116 11.4194C14.1889 12.6318 12.9687 13.8467 11.7461 15.0591C11.1679 15.632 10.8004 15.6465 10.2442 15.0979C8.84512 13.7183 7.46078 12.323 6.05071 10.9555C5.76037 10.6745 5.77875 10.5279 6.06052 10.2602C6.83967 9.51777 6.82742 9.50444 7.57716 10.2493C8.4188 11.0863 9.25798 11.9233 10.2111 12.8716Z" fill="white" fill-opacity="0.7"/>
</g>
<defs>
<clipPath id="clip0_733_21005">
<rect width="22" height="31" fill="white"/>
</clipPath>
</defs>
</svg>
