<svg width="25" height="18" viewBox="0 0 25 18" fill="none" xmlns="http://www.w3.org/2000/svg">
<g clip-path="url(#clip0_3002_1602)">
<path d="M7.04471 5.37527C10.715 5.37527 14.3087 5.37527 17.9629 5.37527C17.1068 4.0835 16.2792 2.83168 15.4488 1.58196C15.2804 1.32894 15.1279 1.0724 15.1941 0.750688C15.2734 0.362385 15.5066 0.100947 15.8915 0.0217445C16.2966 -0.0623644 16.6196 0.10305 16.8472 0.445793C17.466 1.378 18.082 2.31231 18.6987 3.24592C19.11 3.86832 19.5311 4.48442 19.9272 5.11594C20.0636 5.33392 20.2174 5.40261 20.4659 5.39981C21.6262 5.38719 22.7873 5.3921 23.9476 5.3949C24.5907 5.3963 25 5.74886 25 6.29276C25 6.83737 24.5921 7.18642 23.949 7.19273C23.1958 7.20044 23.1687 7.19763 23.1005 7.90695C22.9467 9.51553 22.8241 11.1276 22.6849 12.7383C22.6014 13.707 22.5381 14.6784 22.417 15.6429C22.2429 17.0356 21.1397 17.9776 19.7093 17.9811C16.5548 17.9874 13.401 17.9832 10.2465 17.9832C8.68461 17.9832 7.11989 17.9341 5.56074 17.9972C4.10391 18.0561 2.62619 17.1919 2.49046 15.113C2.32341 12.5596 2.0784 10.0111 1.87794 7.45977C1.86054 7.24109 1.79302 7.1759 1.58769 7.18992C1.36565 7.20464 1.14152 7.20044 0.918784 7.19132C0.38213 7.1696 0.000695111 6.79321 -9.38654e-07 6.29486C-0.000696988 5.79091 0.373777 5.40471 0.916 5.3991C2.09093 5.38719 3.26725 5.38369 4.44218 5.40261C4.75819 5.40752 4.94264 5.3206 5.12083 5.04515C6.10853 3.51647 7.12267 2.00531 8.12498 0.485745C8.36094 0.127581 8.67904 -0.0644671 9.10571 0.0210436C9.48924 0.0981434 9.72659 0.356778 9.80594 0.746483C9.86719 1.04857 9.74121 1.2988 9.57972 1.54131C8.77857 2.74617 7.9809 3.95313 7.18183 5.15939C7.14286 5.21757 7.10666 5.27715 7.04471 5.37527ZM11.6602 15.2861C12.0291 15.2532 12.357 15.0849 12.5818 14.7289C12.8915 14.2382 13.2068 13.7504 13.5194 13.2612C14.2962 12.043 15.0722 10.8234 15.8497 9.60525C16.078 9.24779 16.1233 8.88261 15.8811 8.51604C15.6806 8.21255 15.3876 8.11092 15.0333 8.14596C14.7235 8.1768 14.5286 8.36885 14.3497 8.59735C13.4386 9.75875 12.5177 10.9117 11.6185 12.0816C11.4284 12.329 11.2997 12.3367 11.063 12.1509C10.5598 11.7563 10.037 11.387 9.51499 11.019C9.04864 10.6903 8.5628 10.7358 8.23844 11.122C7.93148 11.4872 7.95793 11.9876 8.32962 12.3745C9.14539 13.224 9.9716 14.0623 10.7915 14.9076C11.0198 15.1424 11.2941 15.2693 11.6602 15.2861Z" fill="#AD2808"/>
</g>
<defs>
<clipPath id="clip0_3002_1602">
<rect width="25" height="18" fill="white"/>
</clipPath>
</defs>
</svg>
