<svg width="19" height="20" viewBox="0 0 19 20" fill="none" xmlns="http://www.w3.org/2000/svg">
<g clip-path="url(#clip0_3002_8453)">
<path d="M12.1854 1.63667C11.0192 1.63667 9.85245 1.62874 8.68628 1.64033C8.22849 1.6446 7.93992 1.97047 7.91617 2.46903C7.9037 2.73265 7.92032 2.99749 7.91023 3.26172C7.89242 3.73648 7.5504 4.08065 7.11755 4.07088C6.69063 4.06173 6.35574 3.72915 6.3498 3.26904C6.3403 2.56239 6.26786 1.84293 6.66925 1.19975C7.14011 0.44428 7.80157 0.00857527 8.67797 0.00552412C11.575 -0.00484981 14.4726 3.20418e-05 17.3696 0.0091855C18.3356 0.0128469 18.9977 0.712782 18.9983 1.70868C19.0006 6.5356 19 11.3631 18.9983 16.1901C18.9983 17.0011 18.5844 17.5838 17.8416 17.8377C16.3198 18.3576 14.7979 18.8781 13.2761 19.3974C12.104 19.7971 11.1083 19.0667 11.091 17.8005C11.0881 17.5698 11.1872 17.2702 11.0483 17.1262C10.9088 16.9815 10.6172 17.0889 10.3928 17.0804C9.68263 17.0523 8.96832 17.1432 8.26115 17.0267C7.25471 16.8613 6.41096 15.9149 6.36049 14.8707C6.33021 14.2422 6.33793 13.6106 6.3504 12.9815C6.3593 12.522 6.70191 12.1979 7.13239 12.2004C7.56287 12.2028 7.8936 12.5281 7.90726 12.9906C7.92092 13.4678 7.91201 13.9456 7.9126 14.4234C7.91379 15.1545 8.19049 15.4444 8.88935 15.4456C9.52231 15.4468 10.1553 15.434 10.7876 15.4517C11.0311 15.4584 11.0988 15.3943 11.0976 15.1374C11.0887 11.4992 11.0916 7.86103 11.0916 4.22283C11.0916 3.99948 11.1035 3.77492 11.0899 3.55219C11.0364 2.6643 11.3695 2.02173 12.1854 1.63667Z" fill="#828282"/>
<path d="M2.2884 7.31973C2.77292 7.31973 3.25803 7.31179 3.74254 7.324C3.92127 7.32827 3.97946 7.28372 3.97589 7.08967C3.96402 6.38851 3.96877 5.68675 3.97174 4.98559C3.97352 4.5389 4.13443 4.24965 4.46041 4.13127C4.82558 3.99824 5.12899 4.10625 5.40034 4.38818C6.39491 5.4213 7.39897 6.44465 8.39709 7.47411C8.82579 7.91592 8.82342 8.3559 8.39472 8.79709C7.38175 9.83937 6.37056 10.8835 5.35225 11.9203C4.92889 12.3511 4.31018 12.2675 4.05249 11.7592C3.97649 11.6096 3.97114 11.4467 3.97114 11.2838C3.97055 10.6131 3.95927 9.94189 3.97708 9.27124C3.98361 9.0241 3.92899 8.94355 3.67485 8.94782C2.7456 8.9643 1.81517 8.96125 0.885327 8.95209C0.217932 8.94538 -0.189394 8.33942 0.0878962 7.77618C0.239307 7.46862 0.497003 7.32034 0.83367 7.32034C1.31878 7.32034 1.80329 7.32034 2.2884 7.31973Z" fill="#828282"/>
</g>
<defs>
<clipPath id="clip0_3002_8453">
<rect width="19" height="19.5072" fill="white"/>
</clipPath>
</defs>
</svg>
