<svg width="261" height="50" viewBox="0 0 261 50" fill="none" xmlns="http://www.w3.org/2000/svg">
<g clip-path="url(#clip0_3002_8460)">
<path fill-rule="evenodd" clip-rule="evenodd" d="M25.2632 0H235.263C249.158 0 260.526 11.2488 260.526 24.9973C260.526 38.7458 249.158 49.9946 235.263 49.9946H25.2632C11.3684 50 0 38.7512 0 24.9973C0 11.2434 11.3684 0 25.2632 0Z" fill="black"/>
<path opacity="0.2" fill-rule="evenodd" clip-rule="evenodd" d="M25.2632 0H235.263C249.158 0 260.526 11.2488 260.526 24.9973C260.526 25.9455 260.472 26.8829 260.363 27.8041C225.697 24.5178 180.152 22.5191 130.263 22.5191C80.3739 22.5191 34.8294 24.5178 0.163339 27.8095C0.0544465 26.8829 0 25.9455 0 24.9973C0 11.2488 11.3684 0 25.2632 0Z" fill="white"/>
<path d="M244.454 16.6254L243.272 20.973L232.073 28.8385H241.138L239.918 33.3746H224.281L225.501 28.8385L236.695 20.9514H227.902L229.078 16.6254H244.454Z" fill="white"/>
<path d="M227.221 16.6254L222.681 33.3746H217.367L221.907 16.6254H227.221Z" fill="white"/>
<path d="M213.555 20.9514H207.702L207.093 23.1872H212.946L213.555 20.9514ZM212.053 26.5327H206.2L205.59 28.79H211.443L212.053 26.5327ZM219.294 18.6025C219.294 18.9581 219.223 19.3999 219.082 19.9278C218.641 21.5871 218.363 22.5353 218.238 22.7669C217.813 23.6666 217.116 24.3077 216.147 24.6956C216.855 25.0673 217.203 25.633 217.203 26.3926C217.203 26.7051 217.149 27.0607 217.04 27.4647L216.452 29.6035C216.093 30.8911 215.575 31.8285 214.9 32.4211C214.182 33.0568 213.158 33.3746 211.846 33.3746H199.1L203.635 16.6254H216.425C218.341 16.6254 219.294 17.2826 219.294 18.6025Z" fill="white"/>
<path d="M186.49 20.7629H180.659L179.978 23.3218H185.809L186.49 20.7629ZM192.936 16.6254L188.396 33.3746H183.152L184.965 26.6728H179.134L177.321 33.3746H172.078L175.486 20.7629C175.927 19.1359 176.684 18.0099 177.768 17.3904C178.677 16.8786 180.038 16.6254 181.857 16.6254H192.936V16.6254Z" fill="white"/>
<path d="M174.877 16.6254L167.848 23.1872C170.668 23.1872 172.078 24.2054 172.078 26.2364C172.078 26.732 171.991 27.2977 171.817 27.9334L170.336 33.38H165.093L166.949 26.5381H161.096L159.24 33.38H153.996L158.532 16.6308H163.775L161.989 23.1925H162.599L169.628 16.6308H174.877V16.6254Z" fill="white"/>
<path d="M156.49 16.6254L151.955 33.3746H146.641L151.176 16.6254H156.49Z" fill="white"/>
<path d="M149.651 16.6254L148.475 20.9514H143.303L139.938 33.3746H134.624L137.989 20.9514H132.817L133.987 16.6254H149.651Z" fill="white"/>
<path d="M132.534 16.6254L127.993 33.3746H122.02L119.036 24.7872L116.706 33.3746H111.653L116.189 16.6254H122.161L125.151 25.2074L127.475 16.6254H132.534Z" fill="white"/>
<path d="M107.842 20.7629H102.011L101.33 23.3218H107.161L107.842 20.7629ZM114.218 16.6254L109.682 33.3746H104.439L106.252 26.6728H100.421L98.6079 33.3746H93.3647L96.7731 20.7629C97.2141 19.1359 97.9709 18.0099 99.0544 17.3904C99.9637 16.8786 101.325 16.6254 103.143 16.6254H114.218V16.6254Z" fill="white"/>
<path d="M93.1687 28.8385L91.9491 33.3746H78.4028L82.9437 16.6254H88.2576L84.9418 28.8385H93.1687Z" fill="white"/>
<path d="M81.4846 16.6254L80.3086 20.9514H75.1362L71.7768 33.3746H66.4628L69.8222 20.9514H64.6498L65.8258 16.6254H81.4846Z" fill="white"/>
<path d="M57.9964 20.7629H52.1652L51.4846 23.3218H57.3158L57.9964 20.7629ZM64.3666 16.6254L59.8312 33.3746H54.588L56.4011 26.6728H50.5644L48.7514 33.3746H43.5082L46.9165 20.7629C47.3575 19.1359 48.1143 18.0099 49.1978 17.3904C50.1071 16.8786 51.4683 16.6254 53.2868 16.6254H64.3666V16.6254Z" fill="white"/>
<path d="M197.45 28.72L196.181 33.3746H191.308L192.583 28.72H197.45Z" fill="#01A0C6"/>
<path fill-rule="evenodd" clip-rule="evenodd" d="M20.5318 33.3746L19.1434 31.3975L20.5318 33.3746ZM28.7804 16.6523H24.539C23.9782 16.6523 23.3848 17.1048 23.216 17.6651L18.4791 33.38H20.5318H23.8203C24.3811 33.38 24.9746 32.9275 25.1434 32.3672L29.5045 17.6651C29.6679 17.1048 29.3412 16.6523 28.7804 16.6523Z" fill="#01A0C6"/>
<path fill-rule="evenodd" clip-rule="evenodd" d="M28.1869 33.3746L26.7985 31.3975L28.1869 33.3746ZM36.4355 16.6523H32.1942C31.6334 16.6523 31.0399 17.1048 30.8711 17.6651L26.1343 33.3746H28.1869H31.4755C32.0363 33.3746 32.6297 32.9221 32.7985 32.3618L37.1597 17.6597C37.323 17.1048 36.9963 16.6523 36.4355 16.6523Z" fill="#333333"/>
<path fill-rule="evenodd" clip-rule="evenodd" d="M35.8421 33.3746L34.4537 31.3975L35.8421 33.3746ZM44.0907 16.6523H39.8493C39.2885 16.6523 38.6951 17.1048 38.5263 17.6651L33.7894 33.38H35.8421H39.1306C39.6914 33.38 40.2849 32.9275 40.4537 32.3672L44.8148 17.6651C44.9782 17.1048 44.6515 16.6523 44.0907 16.6523Z" fill="#01A0C6"/>
</g>
<defs>
<clipPath id="clip0_3002_8460">
<rect width="260.526" height="50" fill="white"/>
</clipPath>
</defs>
</svg>
