<svg width="18" height="18" viewBox="0 0 18 18" fill="none" xmlns="http://www.w3.org/2000/svg">
<g clip-path="url(#clip0_758_34619)">
<path d="M9.01538 -5.38944e-05C13.9852 0.00613612 18.0078 4.0454 17.9999 9.02217C17.992 13.9883 13.9447 18.0118 8.97035 17.9999C4.00446 17.9881 -0.0107946 13.9427 -0.000100759 8.96309C0.0105931 4.01276 4.05343 -0.00624391 9.01538 -5.38944e-05ZM7.37078 12.7069C7.36796 12.7069 7.36515 12.7069 7.36233 12.7069C7.36233 12.7536 7.35558 12.802 7.36402 12.847C7.37978 12.9309 7.29536 13.0491 7.41693 13.0924C7.50867 13.125 7.59703 13.0643 7.67077 13.0024C7.72086 12.9601 7.76926 12.9163 7.81654 12.8707C8.11428 12.5854 8.42046 12.3079 8.70526 12.0108C8.83696 11.8735 8.92589 11.873 9.07391 11.9844C9.72399 12.4756 10.3808 12.9579 11.0393 13.4379C11.5031 13.7761 11.8245 13.6512 11.95 13.0885C12.0434 12.6692 12.1284 12.2477 12.2179 11.8274C12.6186 9.94449 13.0205 8.0616 13.4201 6.17871C13.4702 5.94349 13.4882 5.7032 13.2924 5.522C13.0942 5.33855 12.8736 5.4269 12.6603 5.50906C10.8649 6.2029 9.06885 6.89618 7.27341 7.58947C6.1922 8.00701 5.11043 8.42174 4.03204 8.84548C3.85982 8.913 3.65607 9.00585 3.67521 9.22813C3.69322 9.43409 3.90034 9.4808 4.07032 9.53426C4.68549 9.72783 5.30349 9.91185 5.91416 10.1178C6.13761 10.1932 6.31152 10.1758 6.51471 10.0458C8.08614 9.04412 9.66489 8.05484 11.2425 7.06275C11.3292 7.00817 11.4187 6.95696 11.5121 6.91476C11.5712 6.88831 11.6523 6.86974 11.695 6.92882C11.7446 6.99748 11.6759 7.04643 11.6292 7.09145C11.5887 7.13028 11.547 7.16798 11.5054 7.20569C10.2266 8.36209 8.94727 9.51794 7.66852 10.6743C7.57902 10.7548 7.48672 10.8246 7.47884 10.9687C7.44957 11.5483 7.40849 12.1279 7.37078 12.7069Z" fill="#049BE4"/>
</g>
<defs>
<clipPath id="clip0_758_34619">
<rect width="18" height="18" fill="white"/>
</clipPath>
</defs>
</svg>
