<svg width="18" height="18" viewBox="0 0 18 18" fill="none" xmlns="http://www.w3.org/2000/svg">
<g clip-path="url(#clip0_758_34613)">
<path d="M8.99297 1.47241e-06C13.9667 -0.00281235 18 4.0277 18 8.99972C18 13.9712 13.9655 18.0028 8.99297 18C4.0232 17.9978 -0.00393646 13.961 2.88764e-06 8.98565C0.00394223 4.02883 4.03333 0.00281529 8.99297 1.47241e-06ZM9.22089 13.2559C9.95079 13.2289 10.6779 13.1715 11.3993 13.0511C12.6841 12.8366 13.9616 11.6678 14.2098 10.4843C14.4619 9.28223 14.494 8.07454 14.3443 6.85559C14.2379 5.99118 13.9301 5.2489 13.3184 4.60679C12.4731 3.71931 11.392 3.5229 10.2564 3.43005C8.99972 3.32706 7.75376 3.39403 6.5078 3.59719C5.3592 3.78403 4.03052 4.99059 3.79078 6.1285C3.5381 7.33 3.51953 8.536 3.65121 9.7572C3.78346 10.9818 4.36649 11.894 5.36708 12.58C5.63158 12.7618 6.06097 12.7635 6.16902 13.0618C6.27763 13.3595 6.19491 13.7275 6.19378 14.0652C6.19266 14.3004 6.27032 14.4872 6.50049 14.5829C6.73516 14.6803 6.91806 14.5852 7.07845 14.418C7.37052 14.1141 7.67498 13.8209 7.94904 13.5018C8.13194 13.2891 8.32047 13.1974 8.6041 13.2491C8.80332 13.2852 9.01492 13.2559 9.22089 13.2559Z" fill="#6F40AA"/>
<path d="M8.99349 4.34564C9.80049 4.34846 10.603 4.4188 11.3954 4.56737C12.311 4.73901 13.1731 5.71203 13.3324 6.71206C13.5215 7.89837 13.5035 9.08017 13.266 10.2586C13.1214 10.9756 12.1714 11.9002 11.4336 12.0443C10.585 12.2103 9.7279 12.2868 8.86405 12.2632C8.68847 12.2581 8.56748 12.311 8.44817 12.4359C7.94394 12.9649 7.43238 13.4872 6.92027 14.0083C6.85217 14.0775 6.7959 14.2086 6.67715 14.1647C6.54097 14.1147 6.59555 13.9712 6.59443 13.8665C6.58993 13.3324 6.58711 12.7978 6.59555 12.2637C6.5978 12.1191 6.55391 12.0533 6.41322 12.0049C5.87353 11.8191 5.46327 11.455 5.11098 11.0172C4.86337 10.7094 4.73562 10.3531 4.67315 9.96821C4.47787 8.75433 4.43848 7.53145 4.75307 6.34289C5.00012 5.41039 5.68894 4.80486 6.62088 4.57356C7.39299 4.38222 8.19605 4.34958 8.99349 4.34564ZM11.5203 10.2721C11.5079 10.1438 11.4483 10.0414 11.3442 9.9654C11.0875 9.77688 10.836 9.58216 10.5732 9.4032C10.1944 9.14489 10.0453 9.15952 9.76785 9.51238C9.58158 9.7493 9.38067 9.76168 9.12518 9.65419C8.478 9.38181 8.03567 8.91191 7.7571 8.27598C7.58602 7.88599 7.59615 7.84378 7.92705 7.56352C8.1803 7.34911 8.21913 7.16453 8.04186 6.87639C7.89497 6.63778 7.72727 6.41211 7.5652 6.1825C7.25005 5.73736 7.06096 5.75143 6.61469 6.08402C6.4633 6.19657 6.33781 6.33726 6.25058 6.50665C6.16504 6.67211 6.14816 6.84094 6.21344 7.02158C6.93828 9.02784 8.29791 10.4066 10.2935 11.159C10.76 11.334 11.5304 10.7752 11.5203 10.2721ZM11.6998 8.24053C11.6295 6.75314 10.6964 5.7306 9.21184 5.53082C9.05933 5.51056 8.81284 5.4284 8.78921 5.65688C8.76501 5.89268 9.01656 5.84316 9.17132 5.85216C10.2046 5.91238 11.0965 6.68111 11.3132 7.68452C11.3672 7.93382 11.3548 8.1865 11.4016 8.43412C11.419 8.5281 11.4674 8.59676 11.567 8.58888C11.6672 8.58044 11.7038 8.50503 11.7004 8.40823C11.6981 8.35252 11.6998 8.29624 11.6998 8.24053ZM9.28331 6.23653C9.18033 6.24159 9.02332 6.1932 9.01375 6.37441C9.00531 6.53198 9.15106 6.51566 9.25911 6.53592C10.2074 6.716 10.585 7.12626 10.6897 8.0869C10.7015 8.19438 10.7133 8.31144 10.8495 8.30525C10.9964 8.29906 11.011 8.17469 11.0116 8.05651C11.0194 7.12232 10.2158 6.26973 9.28331 6.23653ZM9.43188 6.97094C9.36829 6.97825 9.24561 6.93492 9.22535 7.08968C9.21466 7.17409 9.25349 7.24781 9.34015 7.25288C9.77179 7.27764 9.97101 7.52132 10.0087 7.9327C10.0177 8.02893 10.0914 8.08577 10.1843 8.07564C10.2918 8.06382 10.2946 7.9704 10.298 7.88261C10.3165 7.3992 9.944 6.99063 9.43188 6.97094Z" fill="#6F40AA"/>
</g>
<defs>
<clipPath id="clip0_758_34613">
<rect width="18" height="18" fill="white"/>
</clipPath>
</defs>
</svg>
