<svg width="18" height="18" viewBox="0 0 18 18" fill="none" xmlns="http://www.w3.org/2000/svg">
<g clip-path="url(#clip0_758_34616)">
<path d="M8.99887 18C4.03151 17.9994 -0.000562687 13.9662 5.88986e-08 8.99831C0.000562805 4.02983 4.03208 -0.000562687 9.00113 5.89233e-08C13.9702 0.000562805 18.0006 4.03208 18 9.00113C18 13.9685 13.9668 18.0006 8.99887 18ZM8.8762 14.5262C9.43894 14.5307 9.8942 14.4845 10.3416 14.372C13.3472 13.6173 15.1441 10.6185 14.4041 7.59482C13.704 4.73213 10.8182 2.89533 7.94766 3.48396C4.36016 4.22003 2.44401 7.93641 3.93191 11.2808C3.99719 11.4277 4.01463 11.5656 3.98368 11.7147C3.81261 12.5481 3.64322 13.3815 3.46652 14.2133C3.39167 14.565 3.47946 14.6618 3.83905 14.5796C4.67698 14.3889 5.51548 14.1981 6.34947 13.991C6.4834 13.9578 6.58188 13.9809 6.69274 14.0315C7.41868 14.363 8.17895 14.534 8.8762 14.5262Z" fill="#2AA71B"/>
<path d="M9.00056 4.58917C11.6612 4.58974 13.7197 6.9634 13.3292 9.58129C13.0343 11.5582 11.4727 13.0506 9.48283 13.2859C8.56612 13.3939 7.71694 13.2059 6.91165 12.785C6.731 12.6905 6.56724 12.6803 6.37872 12.7293C5.96342 12.8373 5.54473 12.9324 5.12887 13.0382C4.96848 13.0788 4.93584 13.045 4.9758 12.8767C5.0861 12.4136 5.16826 11.9437 5.27687 11.4806C5.31907 11.2999 5.22735 11.1722 5.15644 11.0354C4.75351 10.2617 4.57343 9.44455 4.65109 8.57173C4.85199 6.31174 6.73213 4.58861 9.00056 4.58917ZM10.601 11.6725C11.1334 11.7276 11.5746 11.3388 11.9173 10.794C12.0822 10.5318 11.9837 10.2667 11.6899 10.1666C11.4164 10.0731 11.1328 10.0107 10.8604 9.91444C10.543 9.80245 10.2938 9.84635 10.0619 10.1159C9.80247 10.417 9.67192 10.422 9.33258 10.2149C8.78503 9.88068 8.31457 9.45299 7.89139 8.97409C7.5408 8.57735 7.53629 8.44792 7.86775 8.03205C8.02757 7.83115 8.05402 7.64376 7.93753 7.4136C7.80304 7.14742 7.69499 6.86773 7.57062 6.59593C7.39561 6.21382 7.13112 6.15698 6.82048 6.43048C6.14969 7.02136 5.99887 7.68709 6.38041 8.5571C6.85143 9.63138 7.6843 10.39 8.6314 11.0366C9.17332 11.4063 9.76308 11.6494 10.601 11.6725Z" fill="#2AA71B"/>
</g>
<defs>
<clipPath id="clip0_758_34616">
<rect width="18" height="18" fill="white"/>
</clipPath>
</defs>
</svg>
