<svg width="15" height="16" viewBox="0 0 15 16" fill="none" xmlns="http://www.w3.org/2000/svg">
<g clip-path="url(#clip0_3073_2643)">
<path d="M7.50763 15.5C11.6413 15.4941 15.0059 12.1225 15 7.99237C14.9941 3.85873 11.6225 0.49413 7.49239 0.499991C3.35874 0.505854 -0.00585402 3.87748 7.64736e-06 8.00761C0.00586931 12.1413 3.3775 15.5059 7.50763 15.5ZM7.49942 13.8587C4.27433 13.8587 1.63776 11.2186 1.6401 7.99237C1.64245 4.77666 4.27316 2.14477 7.48887 2.13891C10.7163 2.13422 13.3576 4.76846 13.3599 7.99354C13.3623 11.221 10.7245 13.8599 7.49942 13.8587Z" fill="#01A0C6"/>
<path d="M6.88504 9.42501C6.88504 9.94787 6.88387 10.4707 6.88504 10.9936C6.88621 11.486 7.12654 11.7744 7.52631 11.7673C7.91318 11.7603 8.15585 11.4649 8.15585 10.9971C8.15585 10.0604 8.15937 9.12489 8.15351 8.1882C8.15233 8.04517 8.19102 7.94553 8.29536 7.84353C8.96711 7.18116 9.63065 6.51059 10.3 5.8447C10.4958 5.6501 10.565 5.4168 10.4818 5.16123C10.4044 4.92325 10.225 4.77436 9.97062 4.73568C9.76547 4.7052 9.58375 4.76616 9.43721 4.9127C8.64706 5.69934 7.85925 6.48714 7.07144 7.27612C6.94366 7.40391 6.88739 7.55983 6.88856 7.74037C6.8909 8.30191 6.88973 8.86346 6.88973 9.42501C6.88739 9.42501 6.88621 9.42501 6.88504 9.42501Z" fill="#01A0C6"/>
</g>
<defs>
<clipPath id="clip0_3073_2643">
<rect width="15" height="15" fill="white" transform="matrix(1 0 0 -1 0 15.5)"/>
</clipPath>
</defs>
</svg>
