<svg width="303" height="23" viewBox="0 0 303 23" fill="none" xmlns="http://www.w3.org/2000/svg">
<g clip-path="url(#clip0_3073_2623)">
<path d="M303 0L301.416 5.97009L286.391 16.771H298.554L296.911 23H275.944L277.587 16.771L292.597 5.9405H280.806L282.376 0H303Z" fill="white"/>
<path d="M279.887 0L273.805 23H266.68L272.761 0H279.887Z" fill="white"/>
<path d="M261.57 5.9405H253.722L252.904 9.01061H260.752L261.57 5.9405ZM259.555 13.6121H251.707L250.889 16.7118H258.737L259.555 13.6121ZM269.264 2.71502C269.264 3.20328 269.169 3.80991 268.98 4.5349C268.388 6.81344 268.016 8.11547 267.848 8.43358C267.279 9.66902 266.344 10.5494 265.045 11.082C265.994 11.5925 266.461 12.3692 266.461 13.4124C266.461 13.8414 266.388 14.3297 266.242 14.8845L265.453 17.8215C264.972 19.5896 264.278 20.8768 263.373 21.6906C262.409 22.5635 261.037 23 259.277 23H242.187L248.268 0H265.417C267.979 0 269.264 0.902541 269.264 2.71502Z" fill="white"/>
<path d="M225.272 5.68892H217.453L216.54 9.20291H224.359L225.272 5.68892ZM233.923 -4.84129e-05L227.834 23H220.804L223.235 13.797H215.416L212.985 23H205.954L210.525 5.68152C211.116 3.44736 212.131 1.90121 213.584 1.05045C214.803 0.347652 216.628 -0.00744629 219.066 -0.00744629H233.923V-4.84129e-05Z" fill="white"/>
<path d="M209.707 0L200.282 9.01061C204.064 9.01061 205.954 10.4088 205.954 13.1978C205.954 13.8784 205.838 14.6552 205.604 15.5281L203.618 23.0074H196.588L199.077 13.6121H191.229L188.74 23.0074H181.709L187.798 0H194.828L192.434 9.01061H193.252L202.677 0H209.707Z" fill="white"/>
<path d="M185.053 0L178.972 23H171.846L177.928 0H185.053Z" fill="white"/>
<path d="M175.876 0L174.307 5.9405H167.364L162.86 23H155.734L160.239 5.9405H153.303L154.88 0H175.876Z" fill="white"/>
<path d="M152.931 0L146.842 23H138.834L134.833 11.2152L131.708 23H124.933L131.015 0H139.023L143.031 11.7922L146.149 0H152.931Z" fill="white"/>
<path d="M119.823 5.68892H112.004L111.092 9.20291H118.911L119.823 5.68892ZM128.365 -4.84129e-05L122.283 23H115.253L117.684 13.797H109.865L107.434 23H100.404L104.974 5.68152C105.565 3.44736 106.58 1.90121 108.033 1.05045C109.252 0.347652 111.077 -0.00744629 113.516 -0.00744629H128.365V-4.84129e-05Z" fill="white"/>
<path d="M100.148 16.771L98.513 23H80.3494L86.438 0H93.5633L89.1173 16.771H100.148Z" fill="white"/>
<path d="M84.4813 0L82.9044 5.9405H75.969L71.4573 23H64.332L68.8437 5.9405H61.9082L63.4851 0H84.4813Z" fill="white"/>
<path d="M52.9871 5.68897H45.1682L44.2557 9.20296H52.0745L52.9871 5.68897ZM61.5286 0L55.44 23H48.4096L50.8407 13.797H43.0219L40.5908 23H33.5604L38.1305 5.68157C38.7219 3.44741 39.7366 1.90125 41.1894 1.0505C42.4159 0.355098 44.2411 0 46.6794 0H61.5286Z" fill="white"/>
<path d="M239.975 16.6156L238.274 23H231.74L233.441 16.6156H239.975Z" fill="#01A0C6"/>
<path fill-rule="evenodd" clip-rule="evenodd" d="M2.75229 23L0.890661 20.285L2.75229 23ZM13.8125 0.0369873H8.12546C7.37351 0.0369873 6.57775 0.658409 6.35144 1.42779L0 23H2.75229H7.16179C7.91374 23 8.7095 22.3786 8.93581 21.6092L14.7835 1.42039C15.0025 0.665807 14.5645 0.0369873 13.8125 0.0369873Z" fill="#01A0C6"/>
<path fill-rule="evenodd" clip-rule="evenodd" d="M13.0168 23L11.1552 20.285L13.0168 23ZM24.0771 0.0369873H18.39C17.638 0.0369873 16.8423 0.658409 16.616 1.42779L10.2645 23.0074H13.0168H17.4263C18.1783 23.0074 18.974 22.386 19.2003 21.6166L25.048 1.42779C25.2671 0.665807 24.829 0.0369873 24.0771 0.0369873Z" fill="white"/>
<path fill-rule="evenodd" clip-rule="evenodd" d="M23.2813 23L21.4197 20.285L23.2813 23ZM34.3416 0.0369873H28.6545C27.9026 0.0369873 27.1068 0.658409 26.8805 1.42779L20.5291 23.0074H23.2813H27.6908C28.4428 23.0074 29.2386 22.386 29.4649 21.6166L35.3126 1.42779C35.5316 0.665807 35.0936 0.0369873 34.3416 0.0369873Z" fill="#01A0C6"/>
</g>
<defs>
<clipPath id="clip0_3073_2623">
<rect width="303" height="23" fill="white"/>
</clipPath>
</defs>
</svg>
