<svg width="11" height="15" viewBox="0 0 11 15" fill="none" xmlns="http://www.w3.org/2000/svg">
<path d="M5.25 0C2.35513 0 0 2.43698 0 5.43241C0 9.14984 4.69824 14.6072 4.89827 14.8377C5.08615 15.0543 5.41419 15.0539 5.60173 14.8377C5.80176 14.6072 10.5 9.14984 10.5 5.43241C10.4999 2.43698 8.14484 0 5.25 0ZM5.25 8.16561C3.79352 8.16561 2.60862 6.9395 2.60862 5.43241C2.60862 3.92532 3.79355 2.69924 5.25 2.69924C6.70645 2.69924 7.89135 3.92535 7.89135 5.43244C7.89135 6.93953 6.70645 8.16561 5.25 8.16561Z" fill="#01A0C6"/>
</svg>
