<svg width="15" height="15" viewBox="0 0 15 15" fill="none" xmlns="http://www.w3.org/2000/svg">
<path d="M14.6067 11.0085L12.509 8.91519C11.7598 8.16758 10.4862 8.46663 10.1865 9.43851C9.96179 10.1114 9.21261 10.4852 8.53834 10.3356C7.03998 9.96184 5.01719 8.01806 4.6426 6.44809C4.41785 5.77525 4.86736 5.02764 5.54162 4.80336C6.51555 4.50432 6.81523 3.23339 6.06605 2.48579L3.96834 0.392493C3.369 -0.130831 2.46998 -0.130831 1.94555 0.392493L0.522109 1.81294C-0.901334 3.30815 0.671945 7.27046 4.19309 10.7842C7.71424 14.2979 11.6849 15.9427 13.1833 14.4475L14.6067 13.027C15.1311 12.4289 15.1311 11.5318 14.6067 11.0085Z" fill="#01A0C6"/>
</svg>
